<svg id="SvgjsSvg1097" width="635.2380445787124" height="309.5995756296011" xmlns="http://www.w3.org/2000/svg" version="1.1" xmlns:xlink="http://www.w3.org/1999/xlink" xmlns:svgjs="http://svgjs.com/svgjs"><defs id="SvgjsDefs1098"><pattern patternUnits="userSpaceOnUse" id="pattern_mark_0" width="300" height="300"><text x="150" y="100" fill="rgba(229,229,229,0.8)" font-size="18" transform="rotate(-45, 150, 150)" style="dominant-baseline: middle; text-anchor: middle;"></text></pattern><pattern patternUnits="userSpaceOnUse" id="pattern_mark_1" width="300" height="300"><text x="150" y="200" fill="rgba(229,229,229,0.8)" font-size="18" transform="rotate(-45, 150, 150)" style="dominant-baseline: middle; text-anchor: middle;"></text></pattern><marker id="SvgjsMarker1160" markerWidth="20" markerHeight="12" refX="0" refY="8" viewBox="0 0 20 12" orient="auto" markerUnits="userSpaceOnUse" stroke-dasharray="0,0"><path id="SvgjsPath1161" d="M0,8 L15,0" fill="none" stroke="#323232" stroke-width="1.5"></path></marker><marker id="SvgjsMarker1162" markerWidth="20" markerHeight="12" refX="16" refY="0" viewBox="0 0 20 12" orient="auto" markerUnits="userSpaceOnUse" stroke-dasharray="0,0"><path id="SvgjsPath1163" d="M15,0 L0,8" fill="none" stroke="#323232" stroke-width="1.5"></path></marker><marker id="SvgjsMarker1166" markerWidth="20" markerHeight="12" refX="0" refY="8" viewBox="0 0 20 12" orient="auto" markerUnits="userSpaceOnUse" stroke-dasharray="0,0"><path id="SvgjsPath1167" d="M0,8 L15,0" fill="none" stroke="#323232" stroke-width="1.5"></path></marker><marker id="SvgjsMarker1168" markerWidth="20" markerHeight="12" refX="16" refY="0" viewBox="0 0 20 12" orient="auto" markerUnits="userSpaceOnUse" stroke-dasharray="0,0"><path id="SvgjsPath1169" d="M15,0 L0,8" fill="none" stroke="#323232" stroke-width="1.5"></path></marker><marker id="SvgjsMarker1172" markerWidth="20" markerHeight="12" refX="0" refY="8" viewBox="0 0 20 12" orient="auto" markerUnits="userSpaceOnUse" stroke-dasharray="0,0"><path id="SvgjsPath1173" d="M0,8 L15,0" fill="none" stroke="#323232" stroke-width="1.5"></path></marker><marker id="SvgjsMarker1174" markerWidth="20" markerHeight="12" refX="16" refY="0" viewBox="0 0 20 12" orient="auto" markerUnits="userSpaceOnUse" stroke-dasharray="0,0"><path id="SvgjsPath1175" d="M15,0 L0,8" fill="none" stroke="#323232" stroke-width="1.5"></path></marker><marker id="SvgjsMarker1178" markerWidth="14" markerHeight="12" refX="16" refY="6" viewBox="0 0 14 12" orient="auto" markerUnits="userSpaceOnUse" stroke-dasharray="0,0"><path id="SvgjsPath1179" d="M1,1 L14,6 L1,11L1,1" fill="#ffffff" stroke="#323232" stroke-width="1.5"></path></marker><marker id="SvgjsMarker1182" markerWidth="14" markerHeight="12" refX="16" refY="6" viewBox="0 0 14 12" orient="auto" markerUnits="userSpaceOnUse" stroke-dasharray="0,0"><path id="SvgjsPath1183" d="M1,1 L14,6 L1,11L1,1" fill="#ffffff" stroke="#323232" stroke-width="1.5"></path></marker><marker id="SvgjsMarker1186" markerWidth="14" markerHeight="12" refX="16" refY="6" viewBox="0 0 14 12" orient="auto" markerUnits="userSpaceOnUse" stroke-dasharray="0,0"><path id="SvgjsPath1187" d="M1,1 L14,6 L1,11L1,1" fill="#ffffff" stroke="#323232" stroke-width="1.5"></path></marker><marker id="SvgjsMarker1206" markerWidth="14" markerHeight="12" refX="16" refY="6" viewBox="0 0 14 12" orient="auto" markerUnits="userSpaceOnUse" stroke-dasharray="0,0"><path id="SvgjsPath1207" d="M1,1 L14,6 L1,11L1,1" fill="#ffffff" stroke="#323232" stroke-width="1.5"></path></marker><marker id="SvgjsMarker1210" markerWidth="14" markerHeight="12" refX="16" refY="6" viewBox="0 0 14 12" orient="auto" markerUnits="userSpaceOnUse" stroke-dasharray="0,0"><path id="SvgjsPath1211" d="M1,1 L14,6 L1,11L1,1" fill="#ffffff" stroke="#323232" stroke-width="1.5"></path></marker></defs><rect id="svgbackgroundid" width="635.2380445787124" height="309.5995756296011" fill="transparent"></rect><rect id="SvgjsRect1100" width="635.2380445787124" height="309.5995756296011" fill="url(#pattern_mark_0)"></rect><rect id="SvgjsRect1101" width="635.2380445787124" height="309.5995756296011" fill="url(#pattern_mark_1)"></rect><g id="SvgjsG1102" transform="translate(510.23804457871245,64.23076923076923)"><path id="SvgjsPath1103" d="M 16.666666666666668 0L 83.33333333333333 0C 105.55555555555556 0 105.55555555555556 50 83.33333333333333 50L 16.666666666666668 50C -5.555555555555556 50 -5.555555555555556 0 16.666666666666668 0Z" stroke="rgba(33,41,48,1)" stroke-width="1.5" fill-opacity="1" fill="#ffffff"></path><g id="SvgjsG1104"><text id="SvgjsText1105" font-family="微软雅黑" text-anchor="middle" font-size="13px" width="80px" fill="#323232" font-weight="400" align="middle" lineHeight="125%" anchor="middle" family="微软雅黑" size="13px" weight="400" font-style="" opacity="1" y="14.375" transform="rotate(0)"><tspan id="SvgjsTspan1106" dy="16.25" x="50"><tspan id="SvgjsTspan1107" style="">Client_1</tspan></tspan></text></g></g><g id="SvgjsG1108" transform="translate(510.23804457871245,210.75342178344727)"><path id="SvgjsPath1109" d="M 16.666666666666668 0L 83.33333333333333 0C 105.55555555555556 0 105.55555555555556 50 83.33333333333333 50L 16.666666666666668 50C -5.555555555555556 50 -5.555555555555556 0 16.666666666666668 0Z" stroke="rgba(33,41,48,1)" stroke-width="1.5" fill-opacity="1" fill="#ffffff"></path><g id="SvgjsG1110"><text id="SvgjsText1111" font-family="微软雅黑" text-anchor="middle" font-size="13px" width="80px" fill="#323232" font-weight="400" align="middle" lineHeight="125%" anchor="middle" family="微软雅黑" size="13px" weight="400" font-style="" opacity="1" y="14.375" transform="rotate(0)"><tspan id="SvgjsTspan1112" dy="16.25" x="50"><tspan id="SvgjsTspan1113" style="">Client_2</tspan></tspan></text></g></g><g id="SvgjsG1114" transform="translate(158.69958304025081,29.33154062124413)"><path id="SvgjsPath1115" d="M 0 4Q 0 0 4 0L 328.4542631135954 0Q 332.4542631135954 0 332.4542631135954 4L 332.4542631135954 251.268035008357Q 332.4542631135954 255.268035008357 328.4542631135954 255.268035008357L 4 255.268035008357Q 0 255.268035008357 0 251.268035008357Z" stroke="rgba(33,41,48,1)" stroke-width="1.5" fill-opacity="1" fill="#ffffff"></path><g id="SvgjsG1116"><text id="SvgjsText1117" font-family="微软雅黑" text-anchor="middle" font-size="13px" width="313px" fill="#323232" font-weight="400" align="middle" lineHeight="125%" anchor="middle" family="微软雅黑" size="13px" weight="400" font-style="" opacity="1" y="117.0090175041785" transform="rotate(0)"></text></g></g><g id="SvgjsG1118" transform="translate(25,108.54847064385052)"><path id="SvgjsPath1119" d="M 0 53.94362486325775C 0 -17.981208287752583 108 -17.981208287752583 108 53.94362486325775C 108 125.86845801426809 0 125.86845801426809 0 53.94362486325775Z" stroke="rgba(33,41,48,1)" stroke-width="1.5" fill-opacity="1" fill="#ffffff"></path><g id="SvgjsG1120"><text id="SvgjsText1121" font-family="微软雅黑" text-anchor="middle" font-size="13px" width="88px" fill="#323232" font-weight="400" align="middle" lineHeight="125%" anchor="middle" family="微软雅黑" size="13px" weight="400" font-style="" opacity="1" y="35.31862486325775" transform="rotate(0)"><tspan id="SvgjsTspan1122" dy="16.25" x="54"><tspan id="SvgjsTspan1123" style="">OneBot</tspan></tspan><tspan id="SvgjsTspan1124" dy="16.25" x="54"><tspan id="SvgjsTspan1125" style="">Impl</tspan></tspan></text></g></g><g id="SvgjsG1126" transform="translate(313.1880342710269,64.23076923076928)"><path id="SvgjsPath1127" d="M 0 0L 116.36151784616754 0L 116.36151784616754 196.52265255267804L 0 196.52265255267804Z" stroke-dasharray="10,6" stroke="rgba(33,41,48,1)" stroke-width="1.5" fill-opacity="1" fill="#ffffff"></path><g id="SvgjsG1128"><text id="SvgjsText1129" font-family="微软雅黑" text-anchor="middle" font-size="13px" width="97px" fill="#323232" font-weight="400" align="middle" lineHeight="125%" anchor="middle" family="微软雅黑" size="13px" weight="400" font-style="" opacity="1" y="87.63632627633902" transform="rotate(0)"></text></g></g><g id="SvgjsG1130" transform="translate(256.72285813551684,25)"><path id="SvgjsPath1131" d="M 0 0L 100 0L 100 40L 0 40Z" stroke="none" fill="none"></path><g id="SvgjsG1132"><text id="SvgjsText1133" font-family="微软雅黑" text-anchor="middle" font-size="13px" width="100px" fill="#323232" font-weight="400" align="middle" lineHeight="125%" anchor="middle" family="微软雅黑" size="13px" weight="400" font-style="" opacity="1" y="9.375" transform="rotate(0)"><tspan id="SvgjsTspan1134" dy="16.25" x="50"><tspan id="SvgjsTspan1135" style="">Perpetua</tspan></tspan></text></g></g><g id="SvgjsG1136" transform="translate(318.90725473257226,141.2997878148006)"><path id="SvgjsPath1137" d="M 0 4Q 0 0 4 0L 99.38461538461536 0Q 103.38461538461536 0 103.38461538461536 4L 103.38461538461536 38.38461538461536Q 103.38461538461536 42.38461538461536 99.38461538461536 42.38461538461536L 4 42.38461538461536Q 0 42.38461538461536 0 38.38461538461536Z" stroke="rgba(33,41,48,1)" stroke-width="1.5" fill-opacity="1" fill="#ffffff"></path><g id="SvgjsG1138"><text id="SvgjsText1139" font-family="微软雅黑" text-anchor="middle" font-size="13px" width="84px" fill="#323232" font-weight="400" align="middle" lineHeight="125%" anchor="middle" family="微软雅黑" size="13px" weight="400" font-style="" opacity="1" y="10.56730769230768" transform="rotate(0)"><tspan id="SvgjsTspan1140" dy="16.25" x="52"><tspan id="SvgjsTspan1141" style="">api intercept</tspan></tspan></text></g></g><g id="SvgjsG1142" transform="translate(183.9572650402577,64.23076923076928)"><path id="SvgjsPath1143" d="M 0 0L 116.36151784616754 0L 116.36151784616754 196.52265255267804L 0 196.52265255267804Z" stroke-dasharray="10,6" stroke="rgba(33,41,48,1)" stroke-width="1.5" fill-opacity="1" fill="#ffffff"></path><g id="SvgjsG1144"><text id="SvgjsText1145" font-family="微软雅黑" text-anchor="middle" font-size="13px" width="97px" fill="#323232" font-weight="400" align="middle" lineHeight="125%" anchor="middle" family="微软雅黑" size="13px" weight="400" font-style="" opacity="1" y="87.63632627633902" transform="rotate(0)"></text></g></g><g id="SvgjsG1146" transform="translate(229.61538461538458,206.0266047991239)"><path id="SvgjsPath1147" d="M 0 4Q 0 0 4 0L 150.21494704026452 0Q 154.21494704026452 0 154.21494704026452 4L 154.21494704026452 38.38461538461536Q 154.21494704026452 42.38461538461536 150.21494704026452 42.38461538461536L 4 42.38461538461536Q 0 42.38461538461536 0 38.38461538461536Z" stroke="rgba(33,41,48,1)" stroke-width="1.5" fill-opacity="1" fill="#ffffff"></path><g id="SvgjsG1148"><text id="SvgjsText1149" font-family="微软雅黑" text-anchor="middle" font-size="13px" width="135px" fill="#323232" font-weight="400" align="middle" lineHeight="125%" anchor="middle" family="微软雅黑" size="13px" weight="400" font-style="" opacity="1" y="10.56730769230768" transform="rotate(0)"><tspan id="SvgjsTspan1150" dy="16.25" x="77.5"><tspan id="SvgjsTspan1151" style="">event broadcast</tspan></tspan></text></g></g><g id="SvgjsG1152" transform="translate(229.61538461538458,76.57297083047729)"><path id="SvgjsPath1153" d="M 0 4Q 0 0 4 0L 150.21494704026452 0Q 154.21494704026452 0 154.21494704026452 4L 154.21494704026452 38.38461538461536Q 154.21494704026452 42.38461538461536 150.21494704026452 42.38461538461536L 4 42.38461538461536Q 0 42.38461538461536 0 38.38461538461536Z" stroke="rgba(33,41,48,1)" stroke-width="1.5" fill-opacity="1" fill="#ffffff"></path><g id="SvgjsG1154"><text id="SvgjsText1155" font-family="微软雅黑" text-anchor="middle" font-size="13px" width="135px" fill="#323232" font-weight="400" align="middle" lineHeight="125%" anchor="middle" family="微软雅黑" size="13px" weight="400" font-style="" opacity="1" y="10.56730769230768" transform="rotate(0)"><tspan id="SvgjsTspan1156" dy="16.25" x="77.5"><tspan id="SvgjsTspan1157" style="">echo parse</tspan></tspan></text></g></g><g id="SvgjsG1158"><path id="SvgjsPath1159" d="M134.5000000000001 162.49209550710827L182.4572650402577 162.49209550710827" stroke="#323232" stroke-width="1.5" fill="none" marker-start="url(#SvgjsMarker1160)" marker-end="url(#SvgjsMarker1162)"></path></g><g id="SvgjsG1164"><path id="SvgjsPath1165" d="M508.73804457871245 89.23076923076923L469.8937983479534 89.23076923076923L469.8937983479534 89.23076923076928L429.5495521171944 89.23076923076928" stroke="#323232" stroke-width="1.5" fill="none" marker-start="url(#SvgjsMarker1166)" marker-end="url(#SvgjsMarker1168)"></path></g><g id="SvgjsG1170"><path id="SvgjsPath1171" d="M508.73804457871245 235.75342178344727L469.8937983479534 235.75342178344727L469.8937983479534 235.75342178344732L429.5495521171944 235.75342178344732" stroke="#323232" stroke-width="1.5" fill="none" marker-start="url(#SvgjsMarker1172)" marker-end="url(#SvgjsMarker1174)"></path></g><g id="SvgjsG1176"><path id="SvgjsPath1177" d="M258.8461538461538 119.66122018373932L258.8461538461538 162.52265255267804L258.8461538461538 162.52265255267804L258.8461538461538 203.43408492161677" stroke="#323232" stroke-width="1.5" fill="none" marker-end="url(#SvgjsMarker1178)"></path></g><g id="SvgjsG1180"><path id="SvgjsPath1181" d="M354.2307692307692 119.43045095297009L354.2307692307692 130.21693636820868L354.2307692307692 130.21693636820868L354.2307692307692 139.05342178344728" stroke="#323232" stroke-width="1.5" fill="none" marker-end="url(#SvgjsMarker1182)"></path></g><g id="SvgjsG1184"><path id="SvgjsPath1185" d="M354.2307692307692 184.34957562960113L354.2307692307692 195.02067642945508L354.2307692307692 195.02067642945508L354.2307692307692 203.7417772293091" stroke="#323232" stroke-width="1.5" fill="none" marker-end="url(#SvgjsMarker1186)"></path></g><g id="SvgjsG1188" transform="translate(448.57264965564224,52.025286894578244)"><path id="SvgjsPath1189" d="M 0 4Q 0 0 4 0L 25.84615384615381 0Q 29.84615384615381 0 29.84615384615381 4L 29.84615384615381 216.93361722506006Q 29.84615384615381 220.93361722506006 25.84615384615381 220.93361722506006L 4 220.93361722506006Q 0 220.93361722506006 0 216.93361722506006Z" stroke="rgba(33,41,48,1)" stroke-width="1.5" fill-opacity="1" fill="#ffffff"></path><g id="SvgjsG1190"><text id="SvgjsText1191" font-family="微软雅黑" text-anchor="middle" font-size="13px" width="10px" fill="#323232" font-weight="400" align="middle" lineHeight="125%" anchor="middle" family="微软雅黑" size="13px" weight="400" font-style="" opacity="1" y="59.34180861253003" transform="rotate(0)"><tspan id="SvgjsTspan1192" dy="16.25" x="15"><tspan id="SvgjsTspan1193" style="">W</tspan></tspan><tspan id="SvgjsTspan1194" dy="16.25" x="15"><tspan id="SvgjsTspan1195" style="">e</tspan></tspan><tspan id="SvgjsTspan1196" dy="16.25" x="15"><tspan id="SvgjsTspan1197" style="">b</tspan></tspan><tspan id="SvgjsTspan1198" dy="16.25" x="15"><tspan id="SvgjsTspan1199" style="">A</tspan></tspan><tspan id="SvgjsTspan1200" dy="16.25" x="15"><tspan id="SvgjsTspan1201" style="">P</tspan></tspan><tspan id="SvgjsTspan1202" dy="16.25" x="15"><tspan id="SvgjsTspan1203" style="">I</tspan></tspan></text></g></g><g id="SvgjsG1204"><path id="SvgjsPath1205" d="M560.2380445787124 210.00342178344727L560.2380445787124 162.49209550710827L481.11880350179604 162.49209550710827" stroke="#323232" stroke-width="1.5" fill="none" marker-end="url(#SvgjsMarker1206)"></path></g><g id="SvgjsG1208"><path id="SvgjsPath1209" d="M560.2380445787124 114.98076923076923L560.2380445787124 162.49209550710827L481.11880350179604 162.49209550710827" stroke="#323232" stroke-width="1.5" fill="none" marker-end="url(#SvgjsMarker1210)"></path><rect id="SvgjsRect1212" width="20" height="16" x="514.709142691737" y="154.49209550710827" fill="#ffffff"></rect><text id="SvgjsText1213" font-family="微软雅黑" text-anchor="middle" font-size="13px" width="20px" fill="#323232" font-weight="400" align="top" lineHeight="16px" anchor="middle" family="微软雅黑" size="13px" weight="400" font-style="" opacity="1" y="151.86709550710827" transform="rotate(0)"><tspan id="SvgjsTspan1214" dy="16.25" x="524.709142691737"><tspan id="SvgjsTspan1215" style="">http</tspan></tspan></text></g></svg>