<svg id="SvgjsSvg1109" width="540.925805621677" height="318" xmlns="http://www.w3.org/2000/svg" version="1.1" xmlns:xlink="http://www.w3.org/1999/xlink" xmlns:svgjs="http://svgjs.com/svgjs"><defs id="SvgjsDefs1110"><pattern patternUnits="userSpaceOnUse" id="pattern_mark_0" width="300" height="300"><text x="150" y="100" fill="rgba(229,229,229,0.8)" font-size="18" transform="rotate(-45, 150, 150)" style="dominant-baseline: middle; text-anchor: middle;"></text></pattern><pattern patternUnits="userSpaceOnUse" id="pattern_mark_1" width="300" height="300"><text x="150" y="200" fill="rgba(229,229,229,0.8)" font-size="18" transform="rotate(-45, 150, 150)" style="dominant-baseline: middle; text-anchor: middle;"></text></pattern><marker id="SvgjsMarker1134" markerWidth="14" markerHeight="12" refX="16" refY="6" viewBox="0 0 14 12" orient="auto" markerUnits="userSpaceOnUse" stroke-dasharray="0,0"><path id="SvgjsPath1135" d="M1,1 L14,6 L1,11L1,1" fill="#ffffff" stroke="#323232" stroke-width="1.5"></path></marker><marker id="SvgjsMarker1144" markerWidth="14" markerHeight="12" refX="16" refY="6" viewBox="0 0 14 12" orient="auto" markerUnits="userSpaceOnUse" stroke-dasharray="0,0"><path id="SvgjsPath1145" d="M1,1 L14,6 L1,11L1,1" fill="#ffffff" stroke="#323232" stroke-width="1.5"></path></marker><marker id="SvgjsMarker1154" markerWidth="20" markerHeight="12" refX="0" refY="8" viewBox="0 0 20 12" orient="auto" markerUnits="userSpaceOnUse" stroke-dasharray="0,0"><path id="SvgjsPath1155" d="M0,8 L15,0" fill="none" stroke="#323232" stroke-width="1.5"></path></marker><marker id="SvgjsMarker1164" markerWidth="20" markerHeight="12" refX="16" refY="0" viewBox="0 0 20 12" orient="auto" markerUnits="userSpaceOnUse" stroke-dasharray="0,0"><path id="SvgjsPath1165" d="M15,0 L0,8" fill="none" stroke="#323232" stroke-width="1.5"></path></marker><marker id="SvgjsMarker1182" markerWidth="14" markerHeight="12" refX="16" refY="6" viewBox="0 0 14 12" orient="auto" markerUnits="userSpaceOnUse" stroke-dasharray="0,0"><path id="SvgjsPath1183" d="M1,1 L14,6 L1,11L1,1" fill="#ffffff" stroke="#323232" stroke-width="1.5"></path></marker><marker id="SvgjsMarker1194" markerWidth="20" markerHeight="12" refX="16" refY="8" viewBox="0 0 20 12" orient="auto" markerUnits="userSpaceOnUse" stroke-dasharray="0,0"><path id="SvgjsPath1195" d="M15,8 L0,0" fill="none" stroke="#323232" stroke-width="1.5"></path></marker><marker id="SvgjsMarker1198" markerWidth="20" markerHeight="12" refX="16" refY="8" viewBox="0 0 20 12" orient="auto" markerUnits="userSpaceOnUse" stroke-dasharray="0,0"><path id="SvgjsPath1199" d="M15,8 L0,0" fill="none" stroke="#323232" stroke-width="1.5"></path></marker><marker id="SvgjsMarker1206" markerWidth="20" markerHeight="12" refX="16" refY="0" viewBox="0 0 20 12" orient="auto" markerUnits="userSpaceOnUse" stroke-dasharray="0,0"><path id="SvgjsPath1207" d="M15,0 L0,8" fill="none" stroke="#323232" stroke-width="1.5"></path></marker></defs><rect id="svgbackgroundid" width="540.925805621677" height="318" fill="transparent"></rect><rect id="SvgjsRect1112" width="540.925805621677" height="318" fill="url(#pattern_mark_0)"></rect><rect id="SvgjsRect1113" width="540.925805621677" height="318" fill="url(#pattern_mark_1)"></rect><g id="SvgjsG1114" transform="translate(218.37500339084204,25)"><path id="SvgjsPath1115" d="M 0 4Q 0 0 4 0L 100.17579883999292 0Q 104.17579883999292 0 104.17579883999292 4L 104.17579883999292 264Q 104.17579883999292 268 100.17579883999292 268L 4 268Q 0 268 0 264Z" stroke="rgba(33,41,48,1)" stroke-width="1.5" fill-opacity="1" fill="#ffffff"></path><g id="SvgjsG1116"><text id="SvgjsText1117" font-family="微软雅黑" text-anchor="middle" font-size="13px" width="85px" fill="#323232" font-weight="400" align="middle" lineHeight="125%" anchor="middle" family="微软雅黑" size="13px" weight="400" font-style="" opacity="1" y="123.375" transform="rotate(0)"><tspan id="SvgjsTspan1118" dy="16.25" x="52.5"><tspan id="SvgjsTspan1119" style="">Perpetua</tspan></tspan></text></g></g><g id="SvgjsG1120" transform="translate(53.00000000000006,129.33333333333337)"><path id="SvgjsPath1121" d="M 0 4Q 0 0 4 0L 92 0Q 96 0 96 4L 96 50Q 96 54 92 54L 4 54Q 0 54 0 50Z" stroke="rgba(33,41,48,1)" stroke-width="1.5" fill-opacity="1" fill="#ffffff"></path><g id="SvgjsG1122"><text id="SvgjsText1123" font-family="微软雅黑" text-anchor="middle" font-size="13px" width="76px" fill="#323232" font-weight="400" align="middle" lineHeight="125%" anchor="middle" family="微软雅黑" size="13px" weight="400" font-style="" opacity="1" y="16.375" transform="rotate(0)"><tspan id="SvgjsTspan1124" dy="16.25" x="48"><tspan id="SvgjsTspan1125" style="">Client_1</tspan></tspan></text></g></g><g id="SvgjsG1126" transform="translate(391.925805621677,129.33333333333331)"><path id="SvgjsPath1127" d="M 0 4Q 0 0 4 0L 92 0Q 96 0 96 4L 96 50Q 96 54 92 54L 4 54Q 0 54 0 50Z" stroke="rgba(33,41,48,1)" stroke-width="1.5" fill-opacity="1" fill="#ffffff"></path><g id="SvgjsG1128"><text id="SvgjsText1129" font-family="微软雅黑" text-anchor="middle" font-size="13px" width="76px" fill="#323232" font-weight="400" align="middle" lineHeight="125%" anchor="middle" family="微软雅黑" size="13px" weight="400" font-style="" opacity="1" y="16.375" transform="rotate(0)"><tspan id="SvgjsTspan1130" dy="16.25" x="48"><tspan id="SvgjsTspan1131" style="">Client_2</tspan></tspan></text></g></g><g id="SvgjsG1132"><path id="SvgjsPath1133" d="M177.75 83.45776462554937L197.96290111541748 83.45776462554937L197.96290111541748 83.27323033226224L216.22580223083492 83.27323033226224" stroke="#323232" stroke-width="1.5" fill="none" marker-end="url(#SvgjsMarker1134)"></path></g><g id="SvgjsG1136" transform="translate(25,69.624431292216)"><path id="SvgjsPath1137" d="M 9.222222222222229 0L 142.77777777777783 0C 155.07407407407413 0 155.07407407407413 27.666666666666686 142.77777777777783 27.666666666666686L 9.222222222222229 27.666666666666686C -3.074074074074076 27.666666666666686 -3.074074074074076 0 9.222222222222229 0Z" stroke="rgba(33,41,48,1)" stroke-width="1.5" fill-opacity="1" fill="#ffffff"></path><g id="SvgjsG1138"><text id="SvgjsText1139" font-family="微软雅黑" text-anchor="middle" font-size="13px" width="133px" fill="#323232" font-weight="400" align="middle" lineHeight="125%" anchor="middle" family="微软雅黑" size="13px" weight="400" font-style="" opacity="1" y="3.208333333333343" transform="rotate(0)"><tspan id="SvgjsTspan1140" dy="16.25" x="76.5"><tspan id="SvgjsTspan1141" style="">send_broadcast_data</tspan></tspan></text></g></g><g id="SvgjsG1142"><path id="SvgjsPath1143" d="M218.25 107.52246734627238L121.40753110249841 107.52246734627238L121.40753110249841 126.92443129221607" stroke="#323232" stroke-width="1.5" fill="none" marker-end="url(#SvgjsMarker1144)"></path><rect id="SvgjsRect1146" width="23" height="16" x="148.5539306984531" y="99.52246734627238" fill="#ffffff"></rect><text id="SvgjsText1147" font-family="微软雅黑" text-anchor="middle" font-size="13px" width="23px" fill="#323232" font-weight="400" align="top" lineHeight="16px" anchor="middle" family="微软雅黑" size="13px" weight="400" font-style="" opacity="1" y="96.89746734627238" transform="rotate(0)"><tspan id="SvgjsTspan1148" dy="16.25" x="160.0539306984531"><tspan id="SvgjsTspan1149" style="">uuid</tspan></tspan></text></g><g id="SvgjsG1150"><path id="SvgjsPath1151" d="M101.00000000000006 128.58333333333337L101.00000000000006 113.31221564610803L101.00000000000006 113.31221564610803L101.00000000000006 98.04109795888269" stroke="#323232" stroke-width="1.5" fill="none"></path></g><g id="SvgjsG1152"><path id="SvgjsPath1153" d="M439.925805621677 127.83333333333331L439.925805621677 113.31221564610792L439.925805621677 113.31221564610792L439.925805621677 98.04109795888257" stroke="#323232" stroke-width="1.5" fill="none" marker-start="url(#SvgjsMarker1154)"></path></g><g id="SvgjsG1156" transform="translate(363.925805621677,69.62443129221589)"><path id="SvgjsPath1157" d="M 9.222222222222229 0L 142.77777777777783 0C 155.07407407407413 0 155.07407407407413 27.666666666666686 142.77777777777783 27.666666666666686L 9.222222222222229 27.666666666666686C -3.074074074074076 27.666666666666686 -3.074074074074076 0 9.222222222222229 0Z" stroke="rgba(33,41,48,1)" stroke-width="1.5" fill-opacity="1" fill="#ffffff"></path><g id="SvgjsG1158"><text id="SvgjsText1159" font-family="微软雅黑" text-anchor="middle" font-size="13px" width="133px" fill="#323232" font-weight="400" align="middle" lineHeight="125%" anchor="middle" family="微软雅黑" size="13px" weight="400" font-style="" opacity="1" y="3.208333333333343" transform="rotate(0)"><tspan id="SvgjsTspan1160" dy="16.25" x="76.5"><tspan id="SvgjsTspan1161" style="">client broadcast event</tspan></tspan></text></g></g><g id="SvgjsG1162"><path id="SvgjsPath1163" d="M363.175805621677 83.4577646255492L343.238303926256 83.4577646255492L343.238303926256 83.53153632902888L324.05080223083496 83.53153632902888" stroke="#323232" stroke-width="1.5" fill="none" marker-end="url(#SvgjsMarker1164)"></path></g><g id="SvgjsG1166"><path id="SvgjsPath1167" d="M439.925805621677 184.08333333333331L439.925805621677 202.02111768722534L439.925805621677 202.02111768722534L439.925805621677 219.95890204111737" stroke="#323232" stroke-width="1.5" fill="none"></path><rect id="SvgjsRect1168" width="23" height="16" x="428.425805621677" y="194.6966079716966" fill="#ffffff"></rect><text id="SvgjsText1169" font-family="微软雅黑" text-anchor="middle" font-size="13px" width="23px" fill="#323232" font-weight="400" align="top" lineHeight="16px" anchor="middle" family="微软雅黑" size="13px" weight="400" font-style="" opacity="1" y="192.0716079716966" transform="rotate(0)"><tspan id="SvgjsTspan1170" dy="16.25" x="439.925805621677"><tspan id="SvgjsTspan1171" style="">uuid</tspan></tspan></text></g><g id="SvgjsG1172" transform="translate(363.925805621677,220.70890204111737)"><path id="SvgjsPath1173" d="M 9.222222222222229 0L 142.77777777777783 0C 155.07407407407413 0 155.07407407407413 27.666666666666686 142.77777777777783 27.666666666666686L 9.222222222222229 27.666666666666686C -3.074074074074076 27.666666666666686 -3.074074074074076 0 9.222222222222229 0Z" stroke="rgba(33,41,48,1)" stroke-width="1.5" fill-opacity="1" fill="#ffffff"></path><g id="SvgjsG1174"><text id="SvgjsText1175" font-family="微软雅黑" text-anchor="middle" font-size="13px" width="133px" fill="#323232" font-weight="400" align="middle" lineHeight="125%" anchor="middle" family="微软雅黑" size="13px" weight="400" font-style="" opacity="1" y="-4.791666666666657" transform="rotate(0)"><tspan id="SvgjsTspan1176" dy="16.25" x="76.5"><tspan id="SvgjsTspan1177" style="">send_broadcast_data_cal</tspan></tspan><tspan id="SvgjsTspan1178" dy="16.25" x="76.5"><tspan id="SvgjsTspan1179" style="">lback</tspan></tspan></text></g></g><g id="SvgjsG1180"><path id="SvgjsPath1181" d="M363.175805621677 234.54223537445068L343.238303926256 234.54223537445068L343.238303926256 234.55358409944614L325.250802230835 234.55358409944614" stroke="#323232" stroke-width="1.5" fill="none" marker-end="url(#SvgjsMarker1182)"></path></g><g id="SvgjsG1184" transform="translate(25,220.70890204111743)"><path id="SvgjsPath1185" d="M 9.222222222222229 0L 142.77777777777783 0C 155.07407407407413 0 155.07407407407413 27.666666666666686 142.77777777777783 27.666666666666686L 9.222222222222229 27.666666666666686C -3.074074074074076 27.666666666666686 -3.074074074074076 0 9.222222222222229 0Z" stroke="rgba(33,41,48,1)" stroke-width="1.5" fill-opacity="1" fill="#ffffff"></path><g id="SvgjsG1186"><text id="SvgjsText1187" font-family="微软雅黑" text-anchor="middle" font-size="13px" width="133px" fill="#323232" font-weight="400" align="middle" lineHeight="125%" anchor="middle" family="微软雅黑" size="13px" weight="400" font-style="" opacity="1" y="-4.791666666666657" transform="rotate(0)"><tspan id="SvgjsTspan1188" dy="16.25" x="76.5"><tspan id="SvgjsTspan1189" style="">client broadcast </tspan></tspan><tspan id="SvgjsTspan1190" dy="16.25" x="76.5"><tspan id="SvgjsTspan1191" style="">callback event</tspan></tspan></text></g></g><g id="SvgjsG1192"><path id="SvgjsPath1193" d="M177.7499988244739 234.5409074858694L217.1666690177193 234.47111944813372" stroke="#323232" stroke-width="1.5" fill="none" marker-end="url(#SvgjsMarker1194)"></path></g><g id="SvgjsG1196"><path id="SvgjsPath1197" d="M101.00000000000006 219.95890204111743L101.00000000000006 202.0211176872254L101.00000000000006 202.0211176872254L101.00000000000006 184.83333333333337" stroke="#323232" stroke-width="1.5" fill="none" marker-end="url(#SvgjsMarker1198)"></path><rect id="SvgjsRect1200" width="23" height="16" x="89.50000000000006" y="194.32666834030107" fill="#ffffff"></rect><text id="SvgjsText1201" font-family="微软雅黑" text-anchor="middle" font-size="13px" width="23px" fill="#323232" font-weight="400" align="top" lineHeight="16px" anchor="middle" family="微软雅黑" size="13px" weight="400" font-style="" opacity="1" y="191.70166834030107" transform="rotate(0)"><tspan id="SvgjsTspan1202" dy="16.25" x="101.00000000000006"><tspan id="SvgjsTspan1203" style="">uuid</tspan></tspan></text></g><g id="SvgjsG1204"><path id="SvgjsPath1205" d="M322.41666666666663 107.52246734627238L420.37500339084215 107.52246734627238L420.37500339084215 128.79109795888263" stroke="#323232" stroke-width="1.5" fill="none" marker-end="url(#SvgjsMarker1206)"></path><rect id="SvgjsRect1208" width="23" height="16" x="360.7037519281816" y="99.52246734627238" fill="#ffffff"></rect><text id="SvgjsText1209" font-family="微软雅黑" text-anchor="middle" font-size="13px" width="23px" fill="#323232" font-weight="400" align="top" lineHeight="16px" anchor="middle" family="微软雅黑" size="13px" weight="400" font-style="" opacity="1" y="96.89746734627238" transform="rotate(0)"><tspan id="SvgjsTspan1210" dy="16.25" x="372.2037519281816"><tspan id="SvgjsTspan1211" style="">uuid</tspan></tspan></text></g></svg>